<svg width="249" height="249" viewBox="0 0 249 249" fill="none" xmlns="http://www.w3.org/2000/svg">
<path fill-rule="evenodd" clip-rule="evenodd" d="M124.5 249C55.85 249 0 193.149 0 124.5C0 55.8501 55.85 0 124.5 0C193.149 0 249 55.8504 249 124.5C249 193.149 193.149 249 124.5 249ZM145.572 76.3446H75.2114L64.5357 93.5008H134.816L145.572 76.3446ZM159.951 76.5082L116.938 144.999H69.2265L80.2341 127.828H108.83L119.754 110.665H53.6442L42.7229 127.828H58.384L36.6549 162.11H127.338L160.832 109.288L173.045 127.828H162.033L151.604 144.999H184.214L195.537 162.11H216.339L159.951 76.5082Z" fill="white"/>
</svg>
